<?xml version="1.0" encoding="UTF-8" standalone="no"?>
<svg
        viewBox="0 0 300 300"
        width="300"
        height="300"
        version="1.1"
        id="svg9"
        xmlns:xlink="http://www.w3.org/1999/xlink"
        xmlns="http://www.w3.org/2000/svg"
        xmlns:svg="http://www.w3.org/2000/svg">
    <defs
            id="defs2">
        <linearGradient
                id="fireGradient-2"
                x1="1"
                y1="0.50000024"
                x2="-2.5748542e-07"
                y2="0.50000024"
                gradientUnits="objectBoundingBox"
                spreadMethod="pad">
            <stop
                    offset="0%"
                    stop-color="red"
                    id="stop104" />
            <stop
                    offset="100%"
                    stop-color="orange"
                    id="stop105" />
        </linearGradient>
        <linearGradient
                id="linearGradient100"
                x1="1"
                y1="0.50000024"
                x2="-2.5741599e-07"
                y2="0.5000003"
                gradientUnits="objectBoundingBox"
                spreadMethod="pad">
            <stop
                    offset="0"
                    stop-color="red"
                    id="stop99" />
            <stop
                    offset="0.71309477"
                    stop-color="orange"
                    id="stop100" />
        </linearGradient>
        <linearGradient
                xlink:href="#linearGradient100"
                id="linearGradient99"
                gradientUnits="userSpaceOnUse"
                x1="149.02408"
                y1="153.79626"
                x2="103.5188"
                y2="108.29099"
                spreadMethod="pad"
                gradientTransform="rotate(9,150.13213,150)" />
        <linearGradient
                xlink:href="#linearGradient100"
                id="linearGradient101"
                gradientUnits="userSpaceOnUse"
                x1="149.02408"
                y1="153.79626"
                x2="103.5188"
                y2="108.29099"
                spreadMethod="pad"
                gradientTransform="rotate(-81,150.0261,150.21869)" />
        <linearGradient
                xlink:href="#linearGradient100"
                id="linearGradient102"
                gradientUnits="userSpaceOnUse"
                gradientTransform="rotate(99,149.81547,150.05942)"
                x1="149.02408"
                y1="153.79626"
                x2="103.5188"
                y2="108.29099"
                spreadMethod="pad" />
        <linearGradient
                xlink:href="#linearGradient100"
                id="linearGradient103"
                gradientUnits="userSpaceOnUse"
                gradientTransform="rotate(-171,150.1255,150.08412)"
                x1="149.02408"
                y1="153.79626"
                x2="103.5188"
                y2="108.29099"
                spreadMethod="pad" />
        <linearGradient
                xlink:href="#fireGradient-2"
                id="linearGradient107"
                gradientUnits="userSpaceOnUse"
                x1="78.131233"
                y1="259.11694"
                x2="155.7838"
                y2="259.11694"
                spreadMethod="pad"
                gradientTransform="matrix(1.7774592,0.28152189,-0.08692661,0.548833,25.313545,-21.639091)" />
        <linearGradient
                xlink:href="#fireGradient-2"
                id="linearGradient109"
                gradientUnits="userSpaceOnUse"
                x1="78.131233"
                y1="259.11694"
                x2="155.7838"
                y2="259.11694"
                spreadMethod="pad"
                gradientTransform="matrix(-1.7774592,-0.28152189,0.08692661,-0.548833,274.92441,321.80524)" />
        <linearGradient
                xlink:href="#fireGradient-2"
                id="linearGradient110"
                gradientUnits="userSpaceOnUse"
                gradientTransform="matrix(-0.28152189,1.7774592,-0.548833,-0.08692661,321.62005,25.291245)"
                x1="78.131233"
                y1="259.11694"
                x2="155.7838"
                y2="259.11694"
                spreadMethod="pad" />
        <linearGradient
                xlink:href="#fireGradient-2"
                id="linearGradient111"
                gradientUnits="userSpaceOnUse"
                gradientTransform="matrix(0.28152189,-1.7774592,0.548833,0.08692661,-21.616794,274.66741)"
                x1="78.131233"
                y1="259.11694"
                x2="155.7838"
                y2="259.11694"
                spreadMethod="pad" />
    </defs>
    <!-- North -->
    <!-- South -->
    <!-- East -->
    <path
            id="polygon4"
            style="fill:url(#linearGradient107);stroke:#000000"
            d="m 278.40111,170.31581 c -39.52084,-27.64806 -130.746,-5.52116 -130.746,-5.52116 0,0 -17.86598,-15.14296 4.69303,-29.63065 22.55902,-14.48768 97.83115,-3.09614 126.05297,35.15181 z" />
    <!-- West -->
    <!-- NE -->
    <!-- SE -->
    <!-- SW -->
    <!-- NW -->
    <path
            id="polygon9"
            style="fill:url(#linearGradient99);stroke:#8e170d"
            d="m 91.813855,69.890733 c 13.260695,5.879614 14.392895,71.359177 43.372445,77.742077 6.90555,1.52098 9.24647,-5.02553 17.16184,-12.46881 C 128.43971,116.09931 127.15541,76.771285 91.813855,69.890733 Z" />
    <path
            id="path101"
            style="fill:url(#linearGradient101);stroke:#8e170d"
            d="m 69.717453,208.39804 c 5.879616,-13.26069 71.359177,-14.39289 77.742077,-43.37244 1.52098,-6.90554 -5.02553,-9.24646 -12.4688,-17.16184 -19.0647,23.90844 -58.39273,25.19273 -65.273277,60.53428 z" />
    <path
            id="path102"
            style="fill:url(#linearGradient102);stroke:#8e170d"
            d="m 229.93385,92.063201 c -5.87961,13.260689 -71.35918,14.392889 -77.74208,43.372439 -1.52099,6.90554 5.02553,9.24646 12.4688,17.16184 19.0647,-23.90844 58.39274,-25.19273 65.27328,-60.534279 z" />
    <path
            id="path103"
            style="fill:url(#linearGradient103);stroke:#8e170d"
            d="m 208.42408,230.27542 c -13.26069,-5.87961 -14.39289,-71.35918 -43.37244,-77.74208 -6.90554,-1.52099 -9.24646,5.02553 -17.16184,12.4688 23.90844,19.06469 25.19273,58.39274 60.53428,65.27328 z" />
    <path
            id="path108"
            style="fill:url(#linearGradient109);stroke:#000000"
            d="m 21.836841,129.85034 c 39.520833,27.64806 130.745989,5.52115 130.745989,5.52115 0,0 17.86598,15.14297 -4.69303,29.63065 -22.55901,14.48768 -97.831143,3.09615 -126.052959,-35.1518 z" />
    <path
            id="path109"
            style="fill:url(#linearGradient110);stroke:#000000"
            d="m 129.66515,278.37881 c 27.64806,-39.52083 5.52115,-130.746 5.52115,-130.746 0,0 15.14297,-17.86597 29.63065,4.69304 14.48768,22.55902 3.09615,97.83114 -35.1518,126.05296 z" />
    <path
            id="path110"
            style="fill:url(#linearGradient111);stroke:#000000"
            d="m 170.33811,21.579845 c -27.64807,39.520831 -5.52116,130.745995 -5.52116,130.745995 0,0 -15.14297,17.86597 -29.63065,-4.69304 -14.48768,-22.55901 -3.09614,-97.831141 35.15181,-126.052955 z" />
</svg>
